<?xml version="1.0" encoding="iso-8859-1"?>
<!-- Uploaded to: SVG Repo, www.svgrepo.com, Generator: SVG Repo Mixer Tools -->
<!DOCTYPE svg PUBLIC "-//W3C//DTD SVG 1.1//EN" "http://www.w3.org/Graphics/SVG/1.1/DTD/svg11.dtd">
<svg fill="#000000" version="1.1" id="Capa_1" xmlns="http://www.w3.org/2000/svg" xmlns:xlink="http://www.w3.org/1999/xlink" 
	 width="800px" height="800px" viewBox="0 0 343.162 343.162"
	 xml:space="preserve">
<g>
	<g>
		<path d="M251.185,225.456c-0.643-0.637-1.327-1.195-2.42-2.054c-2.45-1.964-5.987-1.766-8.19,0.444l-8.545,8.545l-40.544-40.551
			l60.288-60.285c7.548,2.789,15.468,4.203,23.593,4.203c18.116,0,35.151-7.043,47.954-19.852
			c19.924-19.936,25.424-50.597,13.679-76.279c-0.841-1.832-2.522-3.134-4.504-3.492s-4.005,0.276-5.44,1.702l-24.583,24.59
			l-20.188-1.549l-1.555-20.188l24.59-24.59c1.429-1.42,2.059-3.462,1.705-5.44c-0.366-1.981-1.67-3.666-3.495-4.494
			C294.713,2.131,284.92,0,275.191,0c-18.11,0-35.128,7.046-47.93,19.849c-18.963,18.963-24.902,46.633-15.648,71.541
			l-60.292,60.291L81.9,82.26l4.354-4.348c1.156-1.156,1.801-2.717,1.801-4.348s-0.646-3.197-1.801-4.348L39.96,22.929
			c-2.306-2.306-6.389-2.306-8.695,0l-17.39,17.387c-2.405,2.405-2.405,6.29,0,8.695l46.288,46.291
			c1.201,1.198,2.774,1.802,4.348,1.802s3.149-0.604,4.347-1.802l4.348-4.348l69.421,69.422l-51.239,51.232
			c-7.551-2.786-15.465-4.203-23.593-4.203c-18.11,0-35.14,7.044-47.942,19.852C-0.083,247.193-5.586,277.854,6.171,303.53
			c0.835,1.837,2.513,3.146,4.495,3.495c1.973,0.348,4.014-0.276,5.434-1.706l24.596-24.596l20.188,1.562l1.549,20.188
			l-24.589,24.584c-1.42,1.424-2.06,3.465-1.703,5.44c0.357,1.981,1.667,3.669,3.492,4.498c8.818,4.035,18.618,6.167,28.346,6.167
			l0,0c18.11,0,35.131-7.05,47.93-19.853c18.963-18.963,24.899-46.633,15.651-71.541l51.23-51.232l40.544,40.55l-8.538,8.539
			c-2.198,2.191-2.09,6.089-0.187,8.533c0.559,0.721,1.141,1.429,1.783,2.077l69.529,69.53c5.164,5.17,12.106,8.124,19.048,8.124
			c6.137,0,11.817-2.282,15.984-6.449l1.43-1.436c4.563-4.558,6.833-10.802,6.4-17.552c-0.408-6.473-3.278-12.67-8.076-17.468
			L251.185,225.456z"/>
	</g>
</g>
</svg>