<?xml version="1.0" encoding="UTF-8" standalone="no" ?>
<!DOCTYPE svg PUBLIC "-//W3C//DTD SVG 1.1//EN" "http://www.w3.org/Graphics/SVG/1.1/DTD/svg11.dtd">
<svg xmlns="http://www.w3.org/2000/svg" xmlns:xlink="http://www.w3.org/1999/xlink" version="1.1" width="1080" height="1080" viewBox="0 0 1080 1080" xml:space="preserve">
<desc>Created with Fabric.js 5.2.4</desc>
<defs>
</defs>
<g transform="matrix(1 0 0 1 540 540)" id="af2da359-98dd-411f-905f-a8ab38850730"  >
<rect style="stroke: none; stroke-width: 1; stroke-dasharray: none; stroke-linecap: butt; stroke-dashoffset: 0; stroke-linejoin: miter; stroke-miterlimit: 4; fill: rgb(255,255,255); fill-rule: nonzero; opacity: 1; visibility: hidden;" vector-effect="non-scaling-stroke"  x="-540" y="-540" rx="0" ry="0" width="1080" height="1080" />
</g>
<g transform="matrix(1 0 0 1 540 540)" id="6d72c270-0a2a-4bf1-9cdf-40b14b52ed97"  >
</g>
<g transform="matrix(1 0 0 1 540 540)"  >
<path style="stroke: rgb(0,0,0); stroke-width: 0; stroke-dasharray: none; stroke-linecap: butt; stroke-dashoffset: 0; stroke-linejoin: miter; stroke-miterlimit: 4; fill: rgb(254,198,78); fill-rule: nonzero; opacity: 1;" vector-effect="non-scaling-stroke"  transform=" translate(-171.58, -171.58)" d="M 251.185 225.456 C 250.542 224.819 249.858 224.261 248.76500000000001 223.402 C 246.31500000000003 221.438 242.77800000000002 221.636 240.57500000000002 223.84599999999998 L 232.03000000000003 232.39099999999996 L 191.48600000000005 191.83999999999997 L 251.77400000000006 131.55499999999998 C 259.32200000000006 134.34399999999997 267.2420000000001 135.75799999999998 275.3670000000001 135.75799999999998 C 293.48300000000006 135.75799999999998 310.5180000000001 128.71499999999997 323.3210000000001 115.90599999999998 C 343.24500000000006 95.96999999999997 348.74500000000006 65.30899999999997 337.00000000000006 39.62699999999998 C 336.15900000000005 37.79499999999998 334.47800000000007 36.49299999999998 332.49600000000004 36.134999999999984 C 330.514 35.77699999999999 328.49100000000004 36.41099999999999 327.05600000000004 37.83699999999998 L 302.47300000000007 62.42699999999998 L 282.2850000000001 60.87799999999998 L 280.7300000000001 40.68999999999998 L 305.32000000000005 16.099999999999984 C 306.749 14.679999999999984 307.3790000000001 12.637999999999984 307.02500000000003 10.659999999999982 C 306.65900000000005 8.678999999999983 305.355 6.993999999999982 303.53000000000003 6.165999999999983 C 294.713 2.131 284.92 0 275.191 0 C 257.08099999999996 0 240.063 7.046 227.26099999999997 19.849 C 208.29799999999997 38.812 202.35899999999998 66.482 211.61299999999997 91.39 L 151.32099999999997 151.68099999999998 L 81.9 82.26 L 86.254 77.912 C 87.41000000000001 76.756 88.055 75.19500000000001 88.055 73.56400000000001 C 88.055 71.933 87.409 70.367 86.254 69.21600000000001 L 39.96 22.929 C 37.654 20.622999999999998 33.571 20.622999999999998 31.265 22.929 L 13.875 40.316 C 11.47 42.721000000000004 11.47 46.606 13.875 49.011 L 60.163 95.30199999999999 C 61.364 96.49999999999999 62.937 97.104 64.511 97.104 C 66.085 97.104 67.66 96.5 68.85799999999999 95.30199999999999 L 73.20599999999999 90.954 L 142.627 160.37599999999998 L 91.388 211.60799999999998 C 83.837 208.82199999999997 75.923 207.40499999999997 67.795 207.40499999999997 C 49.685 207.40499999999997 32.655 214.44899999999998 19.853 227.25699999999998 C -0.083 247.193 -5.586 277.854 6.171 303.53 C 7.006 305.36699999999996 8.684000000000001 306.676 10.666 307.025 C 12.639000000000001 307.373 14.68 306.74899999999997 16.1 305.31899999999996 L 40.696 280.72299999999996 L 60.884 282.28499999999997 L 62.433 302.47299999999996 L 37.844 327.05699999999996 C 36.424 328.48099999999994 35.784 330.52199999999993 36.141 332.49699999999996 C 36.498 334.47799999999995 37.808 336.16599999999994 39.632999999999996 336.99499999999995 C 48.45099999999999 341.03 58.25099999999999 343.1619999999999 67.979 343.1619999999999 L 67.979 343.1619999999999 C 86.089 343.1619999999999 103.11 336.1119999999999 115.90899999999999 323.3089999999999 C 134.87199999999999 304.3459999999999 140.808 276.67599999999993 131.56 251.76799999999992 L 182.79 200.53599999999992 L 223.334 241.0859999999999 L 214.796 249.6249999999999 C 212.59799999999998 251.8159999999999 212.706 255.71399999999988 214.60899999999998 258.1579999999999 C 215.16799999999998 258.8789999999999 215.74999999999997 259.5869999999999 216.39199999999997 260.2349999999999 L 285.92099999999994 329.7649999999999 C 291.0849999999999 334.9349999999999 298.02699999999993 337.8889999999999 304.96899999999994 337.8889999999999 C 311.10599999999994 337.8889999999999 316.78599999999994 335.6069999999999 320.9529999999999 331.4399999999999 L 322.3829999999999 330.0039999999999 C 326.9459999999999 325.4459999999999 329.21599999999995 319.2019999999999 328.7829999999999 312.4519999999999 C 328.3749999999999 305.97899999999987 325.5049999999999 299.78199999999987 320.7069999999999 294.98399999999987 L 251.185 225.456 z" stroke-linecap="round" />
</g>
<g transform="matrix(0 0 0 0 0 0)"  >
<g style=""   >
</g>
</g>
<g transform="matrix(0 0 0 0 0 0)"  >
<g style=""   >
</g>
</g>
<g transform="matrix(0 0 0 0 0 0)"  >
<g style=""   >
</g>
</g>
<g transform="matrix(NaN NaN NaN NaN 0 0)"  >
<g style=""   >
</g>
</g>
</svg>