<?xml version="1.0" encoding="UTF-8" standalone="no" ?>
<!DOCTYPE svg PUBLIC "-//W3C//DTD SVG 1.1//EN" "http://www.w3.org/Graphics/SVG/1.1/DTD/svg11.dtd">
<svg xmlns="http://www.w3.org/2000/svg" xmlns:xlink="http://www.w3.org/1999/xlink" version="1.1" width="1080" height="1080" viewBox="0 0 1080 1080" xml:space="preserve">
<desc>Created with Fabric.js 5.2.4</desc>
<defs>
</defs>
<g transform="matrix(1 0 0 1 540 540)" id="4ee1bfab-f856-48f9-ad40-c9f9e0aa3d54"  >
<rect style="stroke: none; stroke-width: 1; stroke-dasharray: none; stroke-linecap: butt; stroke-dashoffset: 0; stroke-linejoin: miter; stroke-miterlimit: 4; fill: rgb(255,255,255); fill-rule: nonzero; opacity: 1; visibility: hidden;" vector-effect="non-scaling-stroke"  x="-540" y="-540" rx="0" ry="0" width="1080" height="1080" />
</g>
<g transform="matrix(1 0 0 1 540 540)" id="3a71bad7-4975-40c9-b83e-90f272f6af2a"  >
</g>
<g transform="matrix(1 0 0 1 540 540)"  >
<g style="" vector-effect="non-scaling-stroke"   >
		<g transform="matrix(1.56 0 0 1.56 -151.97 65.89)"  >
<path style="stroke: none; stroke-width: 1; stroke-dasharray: none; stroke-linecap: butt; stroke-dashoffset: 0; stroke-linejoin: miter; stroke-miterlimit: 4; fill: rgb(254,198,78); fill-rule: nonzero; opacity: 1;" vector-effect="non-scaling-stroke"  transform=" translate(-158.74, -298.17)" d="M 92.574 294.24 L 92.574 124.336 L 43.277 124.336 C 19.449 124.336 0 144.213 0 168.467 L 0 374.90700000000004 C 0 399.16100000000006 19.449 419.04 43.277 419.04 L 105.277 419.04 L 105.277 464.509 C 105.277 467.55 107.101 470.286 109.836 471.44100000000003 C 112.572 472.595 115.79299999999999 471.927 117.859 469.8 L 167.703 419.04 L 274.197 419.04 C 298.025 419.04 317.476 399.161 317.476 374.90700000000004 L 317.476 374.84600000000006 L 172.262 374.84600000000006 C 128.314 374.846 92.574 338.676 92.574 294.24 z" stroke-linecap="round" />
</g>
		<g transform="matrix(1.56 0 0 1.56 96.08 -38.31)"  >
<path style="stroke: none; stroke-width: 1; stroke-dasharray: none; stroke-linecap: butt; stroke-dashoffset: 0; stroke-linejoin: miter; stroke-miterlimit: 4; fill: rgb(254,198,78); fill-rule: nonzero; opacity: 1;" vector-effect="non-scaling-stroke"  transform=" translate(-317.49, -231.48)" d="M 462.717 40 L 172.26 40 C 145.155 40 122.97699999999999 62.59 122.97699999999999 90.197 L 122.97699999999999 294.23400000000004 C 122.97699999999999 321.84400000000005 145.155 344.43300000000005 172.26 344.43300000000005 L 336.928 344.43300000000005 L 412.276 420.46600000000007 C 414.675 422.9080000000001 418.28000000000003 423.6380000000001 421.411 422.31800000000004 C 424.544 420.99600000000004 426.587 417.884 426.587 414.43100000000004 L 426.587 344.43300000000005 L 462.71799999999996 344.43300000000005 C 489.82399999999996 344.43300000000005 512.001 321.8430000000001 512.001 294.23400000000004 L 512.001 90.197 C 512 62.59 489.822 40 462.717 40 z M 369.156 280.115 L 195.92 280.115 L 195.92 255.799 L 369.15599999999995 255.799 L 369.15599999999995 280.115 z M 439.058 204.129 L 195.92 204.129 L 195.92 179.815 L 439.058 179.815 L 439.058 204.129 z M 439.058 128.143 L 195.92 128.143 L 195.92 103.828 L 439.058 103.828 L 439.058 128.143 z" stroke-linecap="round" />
</g>
</g>
</g>
<g transform="matrix(NaN NaN NaN NaN 0 0)"  >
<g style=""   >
</g>
</g>
</svg>