<?xml version="1.0"?>
<svg width="512" height="512" xmlns="http://www.w3.org/2000/svg" xmlns:svg="http://www.w3.org/2000/svg" version="1.1" xml:space="preserve">
 <style type="text/css">.st0{fill:#000000;}</style>
 <g class="layer">
  <title>Layer 1</title>
  <g id="svg_1">
   <path class="st0" d="m92.57,294.24l0,-169.9l-49.29,0c-23.83,0 -43.28,19.87 -43.28,44.13l0,206.44c0,24.25 19.45,44.13 43.28,44.13l62,0l0,45.47c0,3.04 1.82,5.78 4.56,6.93c2.73,1.16 5.95,0.49 8.02,-1.64l49.84,-50.76l106.5,0c23.82,0 43.28,-19.88 43.28,-44.13l0,-0.06l-145.22,0c-43.95,0 -79.69,-36.17 -79.69,-80.61z" fill="#fec64e" id="svg_2"/>
   <path class="st0" d="m463.72,39l-290.46,0c-27.1,0 -49.28,22.59 -49.28,50.2l0,204.03c0,27.61 22.18,50.2 49.28,50.2l164.67,0l75.35,76.04c2.4,2.44 6,3.17 9.13,1.85c3.13,-1.32 5.18,-4.44 5.18,-7.89l0,-70l36.13,0c27.1,0 49.28,-22.59 49.28,-50.2l0,-204.03c0,-27.61 -22.18,-50.2 -49.28,-50.2zm-93.56,240.12l-173.24,0l0,-24.32l173.24,0l0,24.32zm69.9,-75.99l-243.14,0l0,-24.32l243.14,0l0,24.32zm0,-75.99l-243.14,0l0,-24.31l243.14,0l0,24.31z" fill="#fec64e" id="svg_3"/>
  </g>
 </g>
</svg>