<svg xmlns="http://www.w3.org/2000/svg" xmlns:xlink="http://www.w3.org/1999/xlink" fill="#000000" version="1.1" width="360.6795585699625" height="354.0497241062267" xml:space="preserve" style=""><rect id="backgroundrect" width="100%" height="100%" x="0" y="0" fill="none" stroke="none"/>

<g class="currentLayer" style=""><title>Layer 1</title><g id="svg_1" class="" fill="#fec64e" fill-opacity="1">
	<g id="svg_2" fill="#fec64e" fill-opacity="1">
		<path d="M258.1217000972081,229.43560548114775 c-0.6253963913321496,-0.6154632074236873 -1.290670313060284,-1.1545973828434948 -2.3537469160556794,-1.9845548321008681 c-2.3829255968332292,-1.8975977070331576 -5.823092060506344,-1.7062920318841934 -7.96577985227108,0.4289884836673739 l-8.311060908138751,8.256095930039882 l-39.43401444816589,-39.17998198467493 l58.63747689056396,-58.246780941188334 c7.341356083631515,2.694704686820508 15.044527808904649,4.0608977406620985 22.947087186157702,4.0608977406620985 c17.620032698869704,0 34.188660267055035,-6.804878131687642 46.64114860022068,-19.18080940937996 c19.37853452706337,-19.26196939277649 24.727959336280822,-48.88632952278853 13.304505811870099,-73.70002825599909 c-0.8179756844639782,-1.7700605902671815 -2.4529544306993487,-3.0280403329133985 -4.380692607402801,-3.373936452627182 s-3.8953538838028905,0.26666851687431337 -5.291067447662354,1.6444558540582657 l-23.909983651816844,23.75861894905567 l-19.635306917905805,-1.4966287414431574 l-1.512428286969662,-19.505449342966077 l23.916792010664942,-23.75861894905567 c1.3898778277039527,-1.3719901955127716 2.0026301240324975,-3.3449507442712787 1.6583216908574108,-5.256075115203858 c-0.35597990548610703,-1.9140229417681693 -1.6242798966169363,-3.5420535610914228 -3.3993163105845454,-4.342059111714363 C300.4580206600476,13.661161528408527 290.9331266315628,11.60221004486084 281.4704804554034,11.60221004486084 c-17.614196962714196,0 -34.16628994512558,6.807776702523232 -46.61780565559864,19.17791083854437 c-18.443844119489192,18.321866251766682 -24.22025029075146,45.05635125869513 -15.219599893569946,69.12221871632337 l-58.641367381334305,58.252578082859515 L93.47126758295784,91.08102235674859 l4.2347992035150535,-4.200995331048965 c1.1243518326282502,-1.1169159619808198 1.75169346934557,-2.6251389867663386 1.75169346934557,-4.200995331048965 s-0.6283142594099047,-3.0889103204607964 -1.75169346934557,-4.200995331048965 L52.67947185594329,33.75598694127798 c-2.2428679291009903,-2.2280347822904587 -6.214086382925511,-2.2280347822904587 -8.4569543120265,0 l-16.913908624053,16.79915037280321 c-2.3391575756669045,2.3236876198649408 -2.3391575756669045,6.077336851954461 0,8.401024471819401 l45.02075919437408,44.72591418343782 c1.1681198537945747,1.1574959536790848 2.698055349230766,1.7410748819112778 4.228963467359542,1.7410748819112778 s3.062788858950138,-0.5835789282321933 4.227990844666958,-1.7410748819112778 l4.228963467359542,-4.200995331048965 l67.5204399419427,67.07486151611805 l-49.836214145362376,49.49986034965515 c-7.344273951709271,-2.691806115984917 -15.041609940826893,-4.0608977406620985 -22.947087186157702,-4.0608977406620985 c-17.614196962714196,0 -34.1779614174366,6.8058443219661715 -46.62947712790966,19.18080940937996 C13.732741376762476,250.437683565557 8.380398699467268,280.062043695569 19.81552369618901,304.8699452871084 c0.812139948308468,1.774891541659832 2.4442008264660835,3.03963461625576 4.371939003169537,3.3768350234627724 c1.9189845724701882,0.3362342169284823 3.904107488036156,-0.26666851687431337 5.285231711506844,-1.6483206151723864 l23.92262774682045,-23.764416090726854 l19.635306917905805,1.509189215064049 l1.5065925508141516,19.505449342966077 l-23.915819387972352,23.75282180738449 c-1.381124223470688,1.375854956626892 -2.0036027467250825,3.3478493151068687 -1.6563764454722405,5.256075115203858 c0.34722630125284226,1.9140229417681693 1.6213620285391812,3.5449521319270136 3.3963984425067903,4.345923872828484 c8.576586903214455,3.8985777738690377 18.10828929054737,5.958495447695255 27.569962844014167,5.958495447695255 l0,0 c17.614196962714196,0 34.169207813203336,-6.8116414636373515 46.61780565559864,-19.18177559965849 c18.443844119489192,-18.321866251766682 24.217332422673703,-45.05635125869513 15.222517761647701,-69.12221871632337 l49.827460541129106,-49.49986034965515 l39.43401444816589,39.1790157943964 l-8.304252549290657,8.250298788368701 c-2.1378246783018113,2.1169229002594947 -2.032781427502632,5.883132605969906 -0.18188044351339352,8.24450164669752 c0.5436960851550102,0.6966231908202174 1.1097624922394753,1.3806859080195428 1.7341862608790395,2.006777208507061 l67.62548319274187,67.1792100661993 c5.022623584508896,4.995203740000725 11.774570316433907,7.849329822778702 18.526517048358915,7.849329822778702 c5.968985464394093,0 11.493482358276845,-2.204846215605736 15.546401118278503,-6.230961106240749 l1.390850450396538,-1.3874492399692535 c4.438077346265316,-4.403895289540291 6.645930858433247,-10.436787388682365 6.224785232543946,-16.95857176876068 c-0.3968300585746766,-6.254149672925472 -3.188257186293602,-12.24163082897663 -7.854900865316392,-16.87741178536415 L258.1217000972081,229.43560548114775 z" id="svg_3" fill="#fec64e" fill-opacity="1"/>
	</g>
</g></g></svg>