<?xml version="1.0"?>
<svg width="32" height="32" xmlns="http://www.w3.org/2000/svg" xmlns:svg="http://www.w3.org/2000/svg" version="1.1">
 <title>bike</title>
 <g class="layer">
  <title>Layer 1</title>
  <path d="m25.8,14.32c-0.64,0 -1.24,0.12 -1.84,0.32l-1.52,-3l2.6,-3.88c0.28,-0.4 0.12,-1.32 -0.72,-1.32l-3.32,0c-0.48,0 -0.84,0.36 -0.84,0.84s0.36,0.84 0.84,0.84l1.76,0l-1.76,2.64l-9.68,0c-0.4,0 -0.68,0.36 -0.68,0.36l0,0l0,0l0,0l0,0l-2.56,3.76c-0.72,-0.36 -1.56,-0.56 -2.44,-0.56c-3.12,0 -5.64,2.52 -5.64,5.64s2.52,5.64 5.68,5.64c2.8,0 5.16,-2.08 5.56,-4.8l4.6,0c0.48,0 0.68,-0.4 0.68,-0.4l0,0l4.8,-7.2l1.16,2.2c-1.4,1.04 -2.32,2.68 -2.32,4.56c0,3.12 2.52,5.64 5.64,5.64s5.64,-2.52 5.64,-5.64s-2.56,-5.64 -5.64,-5.64zm-9.88,4l-3.2,-5.92l7.12,0l-3.92,5.92zm-4.68,-5.12l3.16,5.92l-3.2,0c-0.2,-1.28 -0.84,-2.44 -1.76,-3.28l1.8,-2.64zm-2.72,4.04c0.48,0.52 0.84,1.16 1,1.88l-2.28,0l1.28,-1.88zm-2.84,6.64c-2.16,0 -3.96,-1.76 -3.96,-3.96s1.76,-3.92 3.96,-3.92c0.52,0 1,0.12 1.48,0.28l-2.16,3.2c-0.36,0.44 -0.04,1.28 0.68,1.28l0,0l0,0l3.84,0c-0.4,1.8 -2,3.12 -3.84,3.12zm20.12,0c-2.16,0 -3.96,-1.76 -3.96,-3.96c0,-1.2 0.56,-2.32 1.44,-3.04l1.8,3.44c0.2,0.32 0.68,0.56 1.16,0.36c0.4,-0.16 0.56,-0.72 0.36,-1.12l-1.8,-3.4c0.32,-0.08 0.68,-0.16 1.04,-0.16c2.16,0 3.96,1.76 3.96,3.96s-1.8,3.92 -4,3.92zm-16,-14.48l3.08,0c0.48,0 0.84,-0.36 0.84,-0.84s-0.36,-0.84 -0.84,-0.84l-3.08,0c-0.48,0 -0.84,0.36 -0.84,0.84c-0.04,0.44 0.36,0.84 0.84,0.84z" fill="#fec64b" id="svg_1"/>
 </g>
</svg>